<!DOCTYPE svg PUBLIC "-//W3C//DTD SVG 20010904//EN" "http://www.w3.org/TR/2001/REC-SVG-20010904/DTD/svg10.dtd">
<svg version="1.0" xmlns="http://www.w3.org/2000/svg" width="194px" height="174px" viewBox="0 0 1940 1740" preserveAspectRatio="xMidYMid meet">
<g id="layer101" fill="#005f43" stroke="none">
 <path d="M30 1732 c0 -5 45 -108 99 -231 l100 -222 -115 -182 c-63 -100 -114 -189 -114 -197 0 -9 55 -164 123 -345 l123 -329 349 -113 c193 -62 360 -112 373 -113 18 0 771 273 777 282 7 11 195 659 195 672 0 10 -106 144 -236 299 l-237 282 -116 -3 c-64 -1 -251 -7 -417 -12 l-300 -10 -293 115 c-161 63 -297 115 -302 115 -5 0 -9 -4 -9 -8z"/>
 </g>
<g id="layer102" fill="#00704d" stroke="none">
 <path d="M285 1540 c141 -110 256 -200 254 -201 -2 -1 -74 -15 -158 -33 l-155 -32 -113 -179 c-62 -99 -113 -187 -113 -196 0 -8 55 -163 123 -344 l123 -329 349 -113 c193 -62 360 -112 373 -113 18 0 771 273 777 282 6 11 195 659 195 671 0 9 -106 143 -236 299 l-237 283 -116 -3 c-64 -1 -251 -7 -417 -12 l-300 -10 -293 115 c-161 63 -297 115 -303 115 -6 0 106 -90 247 -200z m1175 -18 c0 -5 29 -166 64 -358 36 -191 64 -349 63 -350 -1 -1 -195 -3 -432 -5 l-430 -4 -89 263 c-48 145 -86 265 -84 267 3 4 871 190 901 194 4 1 7 -3 7 -7z"/>
 </g>
<g id="layer103" fill="#00ab6c" stroke="none">
 <path d="M41 1736 c2 -1 117 -91 255 -199 l252 -196 448 95 c247 52 454 96 459 98 6 2 -30 2 -80 0 -49 -3 -237 -9 -416 -14 l-326 -10 -292 115 c-267 105 -312 122 -300 111z"/>
 <path d="M1758 879 l-178 -79 -417 0 -418 -1 -367 52 c-203 29 -371 50 -374 46 -4 -3 49 -156 118 -339 l124 -332 349 -113 c193 -62 360 -112 373 -113 18 0 771 273 777 282 7 13 195 662 193 668 -2 5 -83 -27 -180 -71z"/>
 </g>
<g id="layer104" fill="#33de99" stroke="none">
 <path d="M1756 877 l-159 -72 -274 -328 c-269 -322 -275 -328 -306 -322 -61 9 -759 76 -763 73 -5 -6 697 -229 719 -228 15 0 767 275 772 282 3 6 195 656 195 662 0 13 -30 2 -184 -67z"/>
 </g>
<g id="layer105" fill="#70e5a6" stroke="none">
 <path d="M1765 879 c-82 -37 -154 -70 -158 -72 -7 -2 77 -332 130 -511 3 -12 45 114 104 310 54 181 99 332 99 337 0 14 -27 4 -175 -64z"/>
 <path d="M1376 214 c-176 -35 -322 -67 -326 -71 -21 -24 -79 -143 -71 -143 11 0 743 269 750 276 10 9 -51 -2 -353 -62z"/>
 </g>
<g id="layer106" fill="#8cefba" stroke="none">
 <path d="M1360 207 l-306 -60 -38 -70 c-20 -38 -35 -71 -33 -73 2 -3 103 32 223 77 121 44 280 103 354 131 74 27 137 52 139 54 9 9 -48 -1 -339 -59z"/>
 </g>

</svg>