<!DOCTYPE svg PUBLIC "-//W3C//DTD SVG 20010904//EN" "http://www.w3.org/TR/2001/REC-SVG-20010904/DTD/svg10.dtd">
<svg version="1.0" xmlns="http://www.w3.org/2000/svg" width="199px" height="226px" viewBox="0 0 1990 2260" preserveAspectRatio="xMidYMid meet">
<g id="layer101" fill="#79012d" stroke="none">
 <path d="M488 1982 l-487 -277 0 -575 0 -575 485 -275 c268 -151 497 -275 509 -275 12 0 241 124 509 275 l485 275 0 575 0 575 -485 275 c-267 151 -495 276 -507 277 -13 1 -224 -113 -509 -275z"/>
 </g>
<g id="layer102" fill="#ab0855" stroke="none">
 <path d="M488 1982 l-487 -277 0 -575 0 -575 485 -275 c268 -151 497 -275 509 -275 23 0 996 545 992 556 -1 3 -73 68 -160 144 -87 75 -156 142 -154 149 2 6 75 199 162 429 86 230 156 419 154 421 -23 17 -982 556 -985 553 -3 -2 72 -110 165 -240 l170 -237 -42 -23 c-23 -14 -240 -127 -482 -252 -242 -125 -473 -246 -514 -268 -41 -22 -70 -34 -65 -26 4 8 173 241 374 519 399 550 385 530 373 529 -4 0 -227 -125 -495 -277z"/>
 </g>
<g id="layer103" fill="#db377a" stroke="none">
 <path d="M1021 2228 c13 -19 91 -127 173 -240 116 -162 154 -208 175 -212 56 -12 592 -77 605 -74 10 2 -925 541 -966 557 -6 2 0 -12 13 -31z"/>
 <path d="M1 1125 l0 -570 485 -275 c268 -151 492 -275 499 -275 17 0 678 826 668 836 -4 3 -327 85 -717 181 l-709 175 -113 249 -114 249 1 -570z"/>
 </g>
<g id="layer104" fill="#e3328e" stroke="none">
 <path d="M0 1119 l1 -564 485 -275 c267 -151 491 -276 497 -277 18 -3 677 831 664 838 -7 4 -327 84 -712 179 -385 94 -703 175 -707 178 -4 4 -55 113 -113 242 -59 129 -109 237 -111 239 -2 2 -4 -250 -4 -560z"/>
 </g>
<g id="layer105" fill="#fe6eb7" stroke="none">
 <path d="M0 1119 l1 -564 491 -278 c270 -153 492 -276 495 -274 2 3 -171 276 -384 608 l-388 604 -104 230 c-57 127 -105 232 -107 234 -2 2 -4 -250 -4 -560z"/>
 </g>
<g id="layer106" fill="#ff95d4" stroke="none">
 <path d="M212 1163 c-96 -267 -212 -596 -212 -601 0 -4 44 -31 98 -61 128 -71 571 -323 745 -423 76 -44 140 -78 142 -76 3 3 -743 1169 -757 1183 -3 3 -10 -7 -16 -22z"/>
 </g>

</svg>