<!DOCTYPE svg PUBLIC "-//W3C//DTD SVG 20010904//EN" "http://www.w3.org/TR/2001/REC-SVG-20010904/DTD/svg10.dtd">
<svg version="1.0" xmlns="http://www.w3.org/2000/svg" width="82px" height="89px" viewBox="0 0 820 890" preserveAspectRatio="xMidYMid meet">
<g id="layer101" fill="#79012d" stroke="none">
 <path d="M187 769 l-187 -121 5 -56 c3 -31 10 -133 15 -226 5 -93 11 -170 12 -171 13 -12 391 -195 402 -195 7 0 97 54 199 121 l187 121 -5 56 c-3 31 -10 133 -15 226 -5 93 -11 170 -12 171 -13 12 -391 195 -402 195 -7 0 -97 -54 -199 -121z"/>
 </g>
<g id="layer102" fill="#ab0855" stroke="none">
 <path d="M187 769 l-187 -121 5 -56 c3 -31 10 -133 15 -226 5 -93 11 -170 12 -171 2 -2 90 -46 197 -100 116 -58 201 -95 213 -92 22 6 368 229 368 238 0 3 -29 27 -65 54 -54 41 -63 53 -59 72 3 12 28 91 55 175 26 84 47 153 46 154 -12 10 -390 194 -393 191 -3 -2 27 -44 66 -92 l70 -87 -193 -115 c-105 -63 -200 -119 -210 -124 -15 -9 22 53 179 297 57 89 77 124 71 124 -2 0 -88 -54 -190 -121z"/>
 </g>
<g id="layer103" fill="#db377a" stroke="none">
 <path d="M426 843 c21 -27 53 -67 72 -90 37 -47 42 -48 207 -58 l90 -5 -195 99 c-107 55 -199 100 -204 100 -4 1 9 -20 30 -46z"/>
 <path d="M4 615 c3 -22 8 -98 11 -170 3 -72 8 -157 11 -191 l6 -60 199 -99 c192 -96 199 -99 213 -80 8 11 63 90 124 175 l110 155 -136 26 c-76 15 -204 39 -285 54 l-148 28 -35 68 c-19 38 -43 83 -55 101 l-20 33 5 -40z"/>
 </g>
<g id="layer104" fill="#e3328e" stroke="none">
 <path d="M4 615 c3 -22 8 -98 11 -170 3 -72 8 -157 11 -191 l6 -60 199 -99 c109 -55 200 -97 202 -95 38 51 238 342 235 344 -1 2 -120 25 -263 51 -143 26 -269 51 -280 55 -11 4 -42 50 -73 106 -48 89 -53 95 -48 59z"/>
 </g>
<g id="layer105" fill="#fe6eb7" stroke="none">
 <path d="M6 593 c2 -27 9 -126 14 -222 6 -96 11 -176 13 -177 12 -11 390 -194 394 -191 2 3 -67 102 -154 221 -87 119 -180 259 -208 310 -27 52 -53 97 -56 100 -3 4 -5 -15 -3 -41z"/>
 </g>
<g id="layer106" fill="#ff95d4" stroke="none">
 <path d="M67 323 c-20 -70 -35 -128 -34 -129 9 -8 390 -194 392 -192 3 3 -296 422 -314 440 -4 5 -23 -49 -44 -119z"/>
 </g>

</svg>