<!DOCTYPE svg PUBLIC "-//W3C//DTD SVG 20010904//EN" "http://www.w3.org/TR/2001/REC-SVG-20010904/DTD/svg10.dtd">
<svg version="1.0" xmlns="http://www.w3.org/2000/svg" width="76px" height="85px" viewBox="0 0 760 850" preserveAspectRatio="xMidYMid meet">
<g id="layer101" fill="#005066" stroke="none">
 <path d="M380 736 l-355 -112 -6 -45 c-4 -24 -10 -91 -14 -149 l-6 -105 84 -105 c83 -104 84 -106 199 -165 l115 -59 134 38 c74 22 137 42 142 46 5 4 87 724 87 767 0 8 -45 -6 -380 -111z"/>
 </g>
<g id="layer102" fill="#007f85" stroke="none">
 <path d="M380 736 l-355 -112 -6 -45 c-4 -24 -10 -91 -13 -149 l-7 -105 78 -99 c42 -54 79 -93 81 -87 2 6 -6 70 -18 142 -12 72 -20 132 -17 135 4 4 266 -202 304 -239 9 -9 7 -30 -11 -94 -13 -47 -19 -83 -13 -83 16 0 261 72 270 80 5 4 87 724 87 767 0 8 -45 -6 -380 -111z m-113 -206 c-76 -50 -141 -90 -145 -90 -4 0 -26 38 -49 84 -51 102 -66 93 167 94 l165 2 -138 -90z"/>
 </g>
<g id="layer103" fill="#009297" stroke="none">
 <path d="M675 826 c-38 -12 -115 -37 -170 -54 -361 -112 -460 -144 -464 -148 -2 -2 77 -4 177 -4 139 0 182 -3 182 -12 0 -7 9 -111 19 -231 19 -214 19 -218 -1 -293 -10 -42 -17 -78 -15 -81 6 -5 258 67 270 77 5 4 87 724 87 767 0 6 -16 2 -85 -21z"/>
 <path d="M17 570 c-3 -30 -9 -98 -12 -150 l-6 -95 77 -98 c42 -53 78 -96 80 -94 2 1 -8 71 -22 155 -21 130 -31 167 -67 245 l-43 92 -7 -55z"/>
 </g>
<g id="layer104" fill="#00bdc1" stroke="none">
 <path d="M580 734 c-171 -111 -175 -114 -173 -146 6 -88 35 -423 36 -424 1 -1 50 -18 110 -39 59 -21 107 -43 107 -48 0 -8 3 -8 10 -1 9 9 94 763 87 770 -1 1 -81 -49 -177 -112z"/>
 <path d="M17 564 c-4 -27 -9 -89 -13 -139 l-7 -89 39 31 c82 65 81 59 31 159 l-44 87 -6 -49z"/>
 </g>
<g id="layer105" fill="#31d4d2" stroke="none">
 <path d="M746 842 c-3 -5 -78 -56 -166 -112 -88 -56 -162 -106 -165 -110 -3 -4 40 -65 95 -134 55 -69 100 -129 100 -132 0 -3 -36 -45 -80 -92 -44 -48 -80 -89 -80 -92 0 -3 52 -23 114 -46 l115 -41 6 46 c15 122 74 715 71 718 -2 3 -7 0 -10 -5z"/>
 <path d="M17 564 c-4 -27 -9 -89 -13 -139 l-7 -89 56 48 56 48 -23 51 c-13 29 -32 70 -43 91 l-20 39 -6 -49z"/>
 </g>
<g id="layer106" fill="#70dfe1" stroke="none">
 <path d="M746 829 c-3 -8 -35 -120 -72 -249 l-68 -235 -79 -87 c-53 -59 -75 -90 -66 -93 8 -3 60 -22 117 -44 56 -21 102 -38 102 -37 0 0 18 170 40 376 35 338 40 412 26 369z"/>
 </g>
<g id="layer107" fill="#d4f5f7" stroke="none">
 <path d="M741 798 c-6 -18 -37 -126 -70 -240 l-60 -206 30 -128 c16 -70 31 -130 34 -132 2 -2 6 16 10 40 11 82 73 693 70 696 -2 2 -8 -12 -14 -30z"/>
 </g>

</svg>