<!DOCTYPE svg PUBLIC "-//W3C//DTD SVG 20010904//EN" "http://www.w3.org/TR/2001/REC-SVG-20010904/DTD/svg10.dtd">
<svg version="1.0" xmlns="http://www.w3.org/2000/svg" width="70px" height="70px" viewBox="0 0 700 700" preserveAspectRatio="xMidYMid meet">
<g id="layer101" fill="#577600" stroke="none">
 <path d="M225 686 c-25 -11 -47 -46 -129 -200 -84 -160 -97 -192 -92 -220 3 -18 12 -40 19 -48 6 -9 97 -61 201 -116 l189 -100 43 15 c42 14 44 17 143 205 99 188 101 192 89 230 -6 21 -16 42 -22 47 -28 23 -376 201 -392 201 -11 -1 -32 -7 -49 -14z"/>
 </g>
<g id="layer102" fill="#6d9100" stroke="none">
 <path d="M225 686 c-25 -11 -47 -46 -129 -200 -84 -160 -97 -192 -92 -220 3 -18 12 -40 19 -48 6 -9 97 -61 201 -116 l189 -100 42 15 43 14 -39 96 c-21 53 -39 100 -39 103 0 4 63 47 141 96 l141 88 -129 36 -128 36 -80 107 c-44 58 -87 106 -95 106 -8 0 -28 -6 -45 -13z"/>
 </g>
<g id="layer103" fill="#92b800" stroke="none">
 <path d="M225 686 c-25 -11 -47 -46 -127 -198 -54 -102 -98 -192 -98 -200 0 -8 5 -29 11 -46 11 -33 16 -36 289 -180 l115 -61 -1 112 c0 62 6 169 14 240 l14 127 -71 96 c-40 52 -74 101 -78 109 -6 18 -28 18 -68 1z"/>
 </g>
<g id="layer104" fill="#b6d700" stroke="none">
 <path d="M225 686 c-25 -11 -47 -46 -129 -200 -84 -160 -97 -192 -92 -220 3 -18 12 -40 19 -48 11 -15 366 -208 381 -208 3 0 6 53 6 118 l0 117 -100 131 -99 132 28 73 c50 132 50 133 -14 105z"/>
 </g>
<g id="layer105" fill="#caea12" stroke="none">
 <path d="M225 686 c-25 -11 -47 -46 -127 -198 -54 -102 -98 -192 -98 -200 0 -8 5 -29 11 -46 11 -33 21 -39 284 -177 l110 -58 -118 120 -118 120 20 114 c10 63 21 128 24 144 2 17 18 67 35 113 33 87 31 92 -23 68z"/>
 </g>
<g id="layer106" fill="#daf75c" stroke="none">
 <path d="M98 486 c-54 -101 -98 -190 -98 -198 0 -8 5 -29 11 -46 11 -33 16 -35 304 -187 l90 -47 -124 126 -125 125 -73 18 -74 17 101 101 100 100 -1 50 c0 28 -3 67 -7 87 -7 38 -8 37 -104 -146z"/>
 </g>
<g id="layer107" fill="#eaff90" stroke="none">
 <path d="M0 281 c0 -4 5 -22 11 -38 l10 -31 60 16 c32 9 59 19 59 22 0 5 -118 40 -134 40 -3 0 -6 -4 -6 -9z"/>
 </g>

</svg>