<!DOCTYPE svg PUBLIC "-//W3C//DTD SVG 20010904//EN" "http://www.w3.org/TR/2001/REC-SVG-20010904/DTD/svg10.dtd">
<svg version="1.0" xmlns="http://www.w3.org/2000/svg" width="29px" height="33px" viewBox="0 0 290 330" preserveAspectRatio="xMidYMid meet">
<g id="layer101" fill="#005066" stroke="none">
 <path d="M140 282 l-135 -47 -3 -58 c-3 -51 1 -64 23 -93 15 -20 51 -47 80 -61 l53 -26 54 19 53 19 7 95 c4 52 9 119 12 148 2 28 2 52 -2 51 -4 0 -68 -21 -142 -47z"/>
 </g>
<g id="layer102" fill="#007f85" stroke="none">
 <path d="M140 282 l-135 -47 -3 -58 -3 -58 29 15 c29 15 31 14 92 -32 l61 -47 -58 -5 -58 -5 47 -24 46 -24 54 19 53 19 7 95 c4 52 9 119 12 148 2 28 2 52 -2 51 -4 0 -68 -21 -142 -47z m104 -185 l14 -58 -31 7 c-18 3 -34 8 -36 10 -2 2 4 29 15 60 10 30 20 52 21 47 1 -4 9 -34 17 -66z"/>
 </g>
<g id="layer103" fill="#009297" stroke="none">
 <path d="M140 282 l-135 -47 -3 -58 -3 -58 28 14 c31 16 188 41 202 33 5 -3 12 -25 15 -48 13 -88 24 -70 31 53 3 68 9 132 11 142 3 9 2 17 -3 16 -4 0 -69 -21 -143 -47z"/>
 <path d="M96 41 c-15 -6 -12 -10 22 -25 39 -18 42 -18 94 0 48 16 51 18 28 25 -33 9 -120 10 -144 0z"/>
 </g>
<g id="layer104" fill="#00bdc1" stroke="none">
 <path d="M146 284 c-115 -39 -170 -64 -140 -64 5 0 18 -16 29 -36 16 -30 23 -35 45 -31 14 3 53 9 87 12 l61 7 30 79 c17 44 27 79 23 78 -3 0 -64 -20 -135 -45z"/>
 <path d="M172 30 c-21 -35 -13 -36 58 -7 l25 10 -25 7 c-39 12 -44 11 -58 -10z"/>
 </g>
<g id="layer105" fill="#31d4d3" stroke="none">
 <path d="M146 284 c-71 -24 -131 -45 -133 -48 -6 -6 40 -76 50 -76 4 0 7 3 7 8 0 4 10 20 23 36 l23 28 53 -26 c29 -15 54 -26 56 -24 5 5 54 142 52 144 -1 1 -60 -18 -131 -42z"/>
 <path d="M171 24 c-10 -24 -10 -25 11 -18 13 4 34 11 48 17 l25 10 -25 7 c-41 13 -46 11 -59 -16z"/>
 </g>
<g id="layer106" fill="#71dfe1" stroke="none">
 <path d="M146 285 c-71 -25 -131 -46 -133 -49 -3 -2 6 -21 20 -41 l25 -37 24 32 c13 18 60 52 105 77 46 24 85 49 88 54 4 5 5 9 3 8 -2 0 -61 -20 -132 -44z"/>
 </g>
<g id="layer107" fill="#d4f5f7" stroke="none">
 <path d="M125 277 l-120 -42 53 -3 c46 -3 62 2 127 38 69 38 87 51 68 49 -5 0 -62 -19 -128 -42z"/>
 </g>

</svg>