<!DOCTYPE svg PUBLIC "-//W3C//DTD SVG 20010904//EN" "http://www.w3.org/TR/2001/REC-SVG-20010904/DTD/svg10.dtd">
<svg version="1.0" xmlns="http://www.w3.org/2000/svg" width="147px" height="133px" viewBox="0 0 1470 1330" preserveAspectRatio="xMidYMid meet">
<g id="layer101" fill="#79012c" stroke="none">
 <path d="M650 1304 c-179 -12 -326 -23 -328 -23 -11 -3 -322 -660 -319 -673 4 -12 194 -300 401 -605 2 -3 738 46 741 49 11 12 325 651 325 660 0 7 -91 149 -202 316 l-202 302 -46 -1 c-25 -1 -191 -12 -370 -25z"/>
 </g>
<g id="layer102" fill="#aa0854" stroke="none">
 <path d="M650 1304 c-179 -12 -326 -23 -328 -23 -11 -3 -322 -660 -319 -673 4 -13 169 -262 401 -605 3 -4 728 46 732 50 2 2 -19 60 -47 128 l-50 123 88 86 c48 47 146 141 218 208 l129 121 -204 306 -204 305 -46 -1 c-25 -1 -191 -12 -370 -25z m415 -16 c20 -112 52 -334 49 -337 -3 -4 -222 -11 -681 -23 -61 -2 -109 -1 -107 2 8 8 719 389 726 390 4 0 10 -15 13 -32z"/>
 </g>
<g id="layer103" fill="#da367a" stroke="none">
 <path d="M1063 1315 c3 -11 18 -99 32 -195 15 -96 28 -175 29 -176 33 -26 339 -224 342 -222 2 3 -89 141 -202 309 -113 167 -204 295 -201 284z"/>
 <path d="M161 955 c-89 -181 -161 -333 -161 -339 0 -6 91 -146 202 -311 l202 -301 115 56 c64 31 205 99 314 150 108 52 196 97 195 101 -2 4 -158 138 -348 299 -190 161 -350 297 -356 304 -8 8 -9 64 -4 186 4 96 6 177 4 179 -2 2 -75 -144 -163 -324z"/>
 </g>
<g id="layer104" fill="#e3328d" stroke="none">
 <path d="M157 948 c-86 -178 -157 -327 -157 -333 0 -22 405 -613 415 -605 6 5 147 74 313 153 l303 145 -360 306 -360 306 6 175 c3 96 4 175 2 175 -2 0 -75 -145 -162 -322z"/>
 </g>
<g id="layer105" fill="#fd6db7" stroke="none">
 <path d="M156 945 c-102 -208 -156 -329 -152 -340 8 -21 373 -565 393 -585 13 -13 14 -10 8 30 -3 25 -26 236 -51 470 -41 393 -44 437 -38 588 4 89 5 162 3 162 -2 0 -75 -146 -163 -325z"/>
 </g>
<g id="layer106" fill="#ff94d4" stroke="none">
 <path d="M152 767 c-93 -93 -150 -157 -147 -165 3 -7 92 -142 198 -299 123 -183 193 -279 195 -267 3 19 -85 875 -91 880 -1 2 -71 -65 -155 -149z"/>
 </g>

</svg>